PathFileType	4	(X/Y/Z)	RBDS012\RBDS012runT45.trc
DataRate	CameraRate	NumFrames	NumMarkers	Units	OrigDataRate	OrigDataStartFrame	OrigNumFrames
150.000000	150.000000	4	33	mm	150.000000	1687	4500
Frame#	Time	L.ASIS			L.Heel.Bottom			L.Heel.Lateral			L.Heel.Top			L.Iliac.Crest			L.MT1			L.MT5			L.PSIS			L.Shank.Bottom.Lateral			L.Shank.Bottom.Medial			L.Shank.Top.Lateral			L.Shank.Top.Medial			L.Thigh.Bottom.Lateral			L.Thigh.Bottom.Medial			L.Thigh.Top.Lateral			L.Thigh.Top.Medial			R.ASIS			R.ASY			R.Heel.Bottom			R.Heel.Lateral			R.Heel.Top			R.Iliac.Crest			R.MT1			R.MT5			R.PSIS			R.Shank.Bottom.Lateral			R.Shank.Bottom.Medial			R.Shank.Top.Lateral			R.Shank.Top.Medial			R.Thigh.Bottom.Lateral			R.Thigh.Bottom.Medial			R.Thigh.Top.Lateral			R.Thigh.Top.Medial			
		X1	Y1	Z1	X2	Y2	Z2	X3	Y3	Z3	X4	Y4	Z4	X5	Y5	Z5	X6	Y6	Z6	X7	Y7	Z7	X8	Y8	Z8	X9	Y9	Z9	X10	Y10	Z10	X11	Y11	Z11	X12	Y12	Z12	X13	Y13	Z13	X14	Y14	Z14	X15	Y15	Z15	X16	Y16	Z16	X17	Y17	Z17	X18	Y18	Z18	X19	Y19	Z19	X20	Y20	Z20	X21	Y21	Z21	X22	Y22	Z22	X23	Y23	Z23	X24	Y24	Z24	X25	Y25	Z25	X26	Y26	Z26	X27	Y27	Z27	X28	Y28	Z28	X29	Y29	Z29	X30	Y30	Z30	X31	Y31	Z31	X32	Y32	Z32	X33	Y33	Z33	

1688	11.24666666666667	2245.325693975132	1029.230663025844	909.0752358954952	2329.271414189465	84.77796460618342	996.2894516349731	2351.886289598941	98.69367642438425	945.8103835906081	2329.278091128843	134.8708759779806	990.8042683538795	2200.92560162903	1107.847980456597	861.2518546534784	2552.14159405622	133.5600274024743	1014.697831809619	2511.723739426077	125.0576361968738	900.3780154840132	2089.082142596593	1089.924376346301	984.72934970466	2384.116175280668	243.2263735622024	922.5485271633731	2344.311471061144	246.6681018898296	960.733746188703	2371.806421644299	320.3828582045144	904.1596594459485	2334.621287857968	324.8412711364474	942.6884547821759	2364.97099785817	706.3200690078498	862.6140741266609	2312.451707123451	662.8414141414964	886.9314883198645	2288.792614816869	784.8085679830573	848.2794440307293	2239.788510140536	745.2117764365039	873.8655834298277	2250.682947044152	1003.042868315328	1163.835421301261	1613.117201248128	200.6457463899611	1092.607161638752	1491.005560837841	357.0622532513136	1045.540597033926	1505.229735026567	346.1873944283846	1087.826513198363	1540.691539613631	365.5564814649542	1055.963163051376	2241.378572314248	1074.155699461825	1180.377908497211	1592.967488690806	152.9130239282873	1038.443927221785	1550.836480504708	182.4370588190963	1144.892846084245	2098.662031070823	1085.017583579497	1091.954304187735	1632.935791729059	371.5088577819919	1124.809720734146	1617.141940650419	400.8871471336997	1085.914305747794	1692.273662907696	429.6839342846532	1142.817845747983	1670.174786788446	459.0568591863874	1104.203261212968	1967.330722814127	669.8660678284147	1177.257701521757	1920.486278673321	700.32392399524	1129.309260034056	2010.804344787301	769.0796617274381	1194.818596041722	1967.702319332985	798.431169044267	1149.209854576004	
1689	11.25333333333333	2244.472037669674	1029.066320456037	908.759647842974	2356.884168320732	73.09321907722025	996.3441888679009	2378.338159205897	88.31339695408241	945.6351366570914	2353.195074452923	123.1503699916243	990.3817494362286	2200.982142710408	1107.67238695384	861.45908264613	2576.148247449083	138.2164315159288	1013.731425445686	2536.195368765995	125.8789900779585	899.6131249336194	2089.415476032801	1090.802875288653	984.6195756515274	2400.119599144231	236.2952937381193	922.2180233824837	2360.464742877933	236.9868742029859	960.7391877020867	2382.635585448046	312.5550683758506	903.9662032881162	2345.475121516999	314.4148351969833	942.7827335470799	2359.068034211664	698.9074529000339	862.3284954672026	2305.935129483859	657.0161278036093	888.0874892672989	2284.495384078787	778.9278012424975	847.7954001690929	2234.878991657329	740.8009104640756	874.5755513557693	2251.467069094859	1004.683258031937	1163.259631788454	1596.876023216028	219.9321460236987	1091.310474839234	1482.100031932368	380.7531642705766	1041.883735081926	1495.5338521731	369.6682044880196	1084.438891524934	1531.883322485215	387.2418659455224	1052.413755838646	2241.308669389828	1076.528521102037	1180.015055009486	1575.303530938337	172.3480527493711	1037.794015871637	1533.830123810317	204.8795736265788	1143.767768556999	2099.676199989448	1087.150433274134	1091.975996667699	1624.845705008063	388.1084464307212	1122.754394929846	1611.039166408502	418.6600474887735	1084.068548693815	1687.316490175992	442.455142120192	1141.312435535539	1667.375506995317	473.3656129848644	1102.787964976654	1970.876125793398	669.048431987185	1177.895007296799	1923.719634334373	699.0920453052621	1130.007677056843	2013.666459653486	768.6283728011408	1195.300918176185	1970.003269990659	797.6038867233759	1149.959106114187	
1690	11.26	2243.294497732579	1028.172477396686	908.3614462207319	2380.72656718644	63.29358048089367	996.3787933002505	2401.147384099985	79.53793734355035	945.4607404217289	2373.771869563079	113.1582377486913	989.9316476221336	2200.655760696243	1106.697024094516	861.5881249267577	2596.055592969259	142.8025550136564	1012.856355672107	2556.793376689913	126.8652014262846	898.9702878981666	2089.382140198798	1090.965587582884	984.468315502413	2413.495489486064	230.1928580812134	921.9074064846419	2374.058511473342	228.3924399976322	960.6939374737769	2391.418959410184	305.4358804728067	903.8565853491287	2354.350217650236	304.9308968769874	942.8971956982263	2353.131078429433	691.3384933457369	862.0247357192009	2299.43147711308	651.0373053155215	889.2418086530647	2280.111085308185	772.7495773136714	847.0805950522414	2229.940357067798	736.1204774803317	875.1193853723242	2252.136741223812	1006.068636491038	1162.77048651181	1582.205362219276	240.0691243941543	1089.268850578959	1475.199993273651	405.4313114828112	1039.069656643514	1487.984806062042	393.8618189226428	1081.741593272123	1524.997088425311	409.7119316880027	1049.468959090584	2240.778320677876	1078.807566601907	1179.804942960445	1558.697928082956	193.3103453020267	1036.109098773814	1518.717280114422	228.1172101696834	1142.013874474317	2100.42575451671	1088.673537478766	1091.859371604911	1618.615236917627	404.8715885102654	1120.804127662431	1606.819063902946	436.7366118898746	1082.564977572365	1684.242546485946	454.9474317311946	1139.931356574519	1666.483830800705	487.5444311462654	1101.767899951676	1975.549345622547	666.8225525706232	1178.598583850251	1927.901852427662	696.277195260941	1130.79725067035	2017.280675458607	766.9293111655986	1195.831298970215	1972.922323086626	795.3604648371146	1150.757273266585	
1691	11.26666666666667	2241.870244449114	1026.619449099095	907.9194788308517	2400.151550928153	55.13198085354414	996.4615571599171	2419.717931068864	72.11480706315831	945.3633358235707	2390.481146803193	104.7145455027681	989.5496593888819	2199.928926051908	1105.032127718105	861.6389530420721	2611.63415658229	146.6325020131601	1012.16646738834	2573.174525520971	127.4613058867731	898.5433773884309	2088.978888388051	1090.355754676166	984.3055987262115	2423.945858175723	224.6820444706759	921.6761854136398	2384.76920380408	220.7089611998322	960.6780906120387	2397.952401859716	298.9010382732026	903.8799028213332	2361.022026071764	296.3250274564899	943.1012128417477	2347.366452441385	683.8796375778261	861.8357373995705	2293.146238357592	645.1041770481602	890.4160924784594	2275.804700517336	766.5081334557755	846.2952024714496	2225.141750376804	731.3443039320922	875.5639530610233	2252.713409241317	1007.162196614867	1162.361356650276	1569.464070820939	260.8068146286067	1086.576426859198	1470.789024850044	430.9888832331069	1037.359469212271	1483.039706503123	418.6119488513428	1079.975532389896	1520.51798273766	432.8033014034458	1047.383045675625	2239.899935634073	1080.92445230497	1179.718746640346	1543.496927715443	215.6614161273071	1033.451731407821	1505.789475946712	251.8930874009226	1139.713252027927	2100.902817993147	1089.491977752681	1091.627625853174	1614.511985530905	421.5961390427277	1119.095479416023	1604.721899929699	454.8752402090016	1081.542785411775	1683.206999907695	467.0218330455546	1138.774307060817	1667.626391330004	501.4050960371654	1101.247772711423	1981.19623227301	663.2681622548287	1179.325396672433	1932.946113991429	691.9882345062332	1131.592179801843	2021.531032058608	764.0222513002586	1196.389221959488	1976.414360493013	791.7670864343781	1151.542290267544	
